<svg preserveAspectRatio="xMinYMid" version="1" enable-background="new 0 0 48 48" xmlns="http://www.w3.org/2000/svg" viewBox="0 0 48 48"><path fill-rule="evenodd" clip-rule="evenodd" fill="#004381" d="M46.004 7.06l-.002-.015s.11.007.002.014zm-5.02 4.01l-1.026.002c.02.237.036.476.036.718 0 3.12-1.633 5.85-4.086 7.404.08.438.127.888.127 1.35 0 2.577-1.298 4.85-3.275 6.204.536 1.163 1.01 2.453 1.01 3.817 0 5.05-4.26 9.393-9.31 9.393-3.103 0-5.88-1.73-7.553-4.154.127 4.646 1.927 7.402 1.927 7.402.502.986.108 2.193-.878 2.695s-2.193.11-2.695-.87c0 0-1.92-4.07-2.31-8.59-.91.38-1.91.6-2.98.6-4.42 0-8.01-3.58-8.01-8.01 0-3.1 1.77-5.79 4.36-7.12-.24-.79-.37-1.62-.37-2.49 0-4.29 3.2-7.82 7.34-8.37.76-3.42 3.8-5.99 7.45-5.99 1.41 0 2.72.39 3.85 1.05 1.61-1.88 3.99-3.07 6.66-3.07 3.8 0 7.03 2.42 8.24 5.8.64-.91 1.94-1.75 4.59-1.75 1.38 0 1.82-.01 1.95-.02.03.15.6 4.01-5.02 4.01zM31.23 5.986c-2.584 0-4.747 1.698-5.5 4.03h-1.09c-.853-1.253-2.29-2.075-3.918-2.075-2.618 0-4.74 2.13-4.74 4.74 0 .58.118 1.13.307 1.64-.6-.22-1.23-.36-1.9-.36-3.02 0-5.46 2.44-5.46 5.46 0 1.73.81 3.25 2.06 4.24v.47c-.34-.07-.68-.11-1.04-.11-2.77 0-5.01 2.24-5.01 5.01s2.25 5 5.01 5c1.19 0 2.28-.43 3.14-1.13.92-4.25 4.34-8.2 4.34-8.2.68-.86 1.95-1.01 2.81-.32s1.01 1.95.32 2.82c0 0-1.55 1.29-2.64 3.55.09 3.53 2.96 6.36 6.51 6.36 3.6 0 6.53-2.92 6.53-6.53 0-2.38-1.29-4.44-3.19-5.58.23.04.47.07.72.07 2.48 0 4.5-2.01 4.5-4.5 0-1.16-.46-2.21-1.18-3.01 2.91-.31 5.19-2.74 5.19-5.74 0-3.21-2.6-5.81-5.81-5.81zM23.98 20.07c-1.927 0-2.088.008-2.097.01 0-.005-.62-4.004 5.168-4.004 1.38 0 1.82-.01 1.95-.018.03.147.61 4.013-5.02 4.013zM29 16.045s.11.007 0 .014v-.02zm12.052 10.03c1.373 0 1.818-.008 1.95-.017.022.146.602 4.013-5.022 4.013-1.927 0-2.088.01-2.097.01 0 0-.62-4 5.17-4zm1.95-.016L43 26.04s.11.007.002.014z"/></svg>